solid OpenSCAD_Model
  facet normal 0.897338 0.432126 0.0897321
    outer loop
      vertex 1.20475 0 7.95248
      vertex 1.24698 1.56366 0
      vertex 1.03844 0.243359 8.44366
    endloop
  endfacet
  facet normal 0.897334 0.432134 0.0897336
    outer loop
      vertex 1.24698 1.56366 0
      vertex 1.20475 0 7.95248
      vertex 2 0 0
    endloop
  endfacet
  facet normal -0.620974 -0.778678 0.0897336
    outer loop
      vertex -1.80194 -0.867767 0
      vertex -0.344801 -1.00519 8.89118
      vertex -0.904705 -0.435683 9.95852
    endloop
  endfacet
  facet normal -0.620973 -0.778679 0.0897334
    outer loop
      vertex -1.80194 -0.867767 0
      vertex -0.251166 -1.10043 8.71269
      vertex -0.344801 -1.00519 8.89118
    endloop
  endfacet
  facet normal -0.620976 -0.778677 0.0897339
    outer loop
      vertex -0.251166 -1.10043 8.71269
      vertex -1.80194 -0.867767 0
      vertex -0.445042 -1.94986 0
    endloop
  endfacet
  facet normal 0.221625 0.970995 0.0897332
    outer loop
      vertex 0.648773 0.813536 9.59448
      vertex 1.24698 1.56366 0
      vertex 0.520334 0.849315 9.52454
    endloop
  endfacet
  facet normal 0.221623 0.970997 0.0897068
    outer loop
      vertex 0.0356498 0.919367 9.96358
      vertex -0.222521 0.974928 10
      vertex -0.00455166 0.925178 10
    endloop
  endfacet
  facet normal 0.221627 0.970993 0.0897394
    outer loop
      vertex 0.520334 0.849315 9.52454
      vertex -0.222521 0.974928 10
      vertex 0.0356498 0.919367 9.96358
    endloop
  endfacet
  facet normal 0.221623 0.970995 0.0897332
    outer loop
      vertex -0.222521 0.974928 10
      vertex 0.520334 0.849315 9.52454
      vertex 1.24698 1.56366 0
    endloop
  endfacet
  facet normal 0 0 -1
    outer loop
      vertex 1.24698 -1.56366 0
      vertex 1.24698 1.56366 0
      vertex 2 0 0
    endloop
  endfacet
  facet normal 0 0 -1
    outer loop
      vertex -0.445042 -1.94986 0
      vertex 1.24698 1.56366 0
      vertex 1.24698 -1.56366 0
    endloop
  endfacet
  facet normal 0 0 -1
    outer loop
      vertex -0.445042 -1.94986 0
      vertex -0.445042 1.94986 0
      vertex 1.24698 1.56366 0
    endloop
  endfacet
  facet normal 0 0 -1
    outer loop
      vertex -1.80194 -0.867767 0
      vertex -0.445042 1.94986 0
      vertex -0.445042 -1.94986 0
    endloop
  endfacet
  facet normal 0 0 -1
    outer loop
      vertex -0.445042 1.94986 0
      vertex -1.80194 -0.867767 0
      vertex -1.80194 0.867767 0
    endloop
  endfacet
  facet normal 0.221627 0.970994 0.0897336
    outer loop
      vertex 1.24698 1.56366 0
      vertex -0.445042 1.94986 0
      vertex -0.222521 0.974928 10
    endloop
  endfacet
  facet normal 0.897333 0.432136 0.0897335
    outer loop
      vertex 1.24698 1.56366 0
      vertex 0.648773 0.813536 9.59448
      vertex 1.03844 0.243359 8.44366
    endloop
  endfacet
  facet normal 0.221664 -0.970986 0.0897322
    outer loop
      vertex -0.445042 -1.94986 0
      vertex -0.167822 -1.09598 8.55496
      vertex -0.251166 -1.10043 8.71269
    endloop
  endfacet
  facet normal 0.221623 -0.970995 0.0897345
    outer loop
      vertex -0.445042 -1.94986 0
      vertex 0.0505603 -1.08433 8.14167
      vertex -0.167822 -1.09598 8.55496
    endloop
  endfacet
  facet normal 0.221627 -0.970994 0.0897341
    outer loop
      vertex 0.0505603 -1.08433 8.14167
      vertex -0.445042 -1.94986 0
      vertex 1.24698 -1.56366 0
    endloop
  endfacet
  facet normal 0.897582 -0.431613 0.0897584
    outer loop
      vertex 1.20421 -0.00330865 7.94197
      vertex 2 0 0
      vertex 1.20475 0 7.95248
    endloop
  endfacet
  facet normal 0.897331 -0.432141 0.089733
    outer loop
      vertex 1.06018 -0.381028 7.56323
      vertex 2 0 0
      vertex 1.20421 -0.00330865 7.94197
    endloop
  endfacet
  facet normal 0.897334 -0.432134 0.0897338
    outer loop
      vertex 2 0 0
      vertex 1.06018 -0.381028 7.56323
      vertex 1.24698 -1.56366 0
    endloop
  endfacet
  facet normal -0.620974 0.778678 0.0897337
    outer loop
      vertex -0.445042 1.94986 0
      vertex -0.900969 0.433884 10
      vertex -0.222521 0.974928 10
    endloop
  endfacet
  facet normal -0.620976 0.778677 0.0897336
    outer loop
      vertex -0.900969 0.433884 10
      vertex -0.445042 1.94986 0
      vertex -1.80194 0.867767 0
    endloop
  endfacet
  facet normal 0.221654 -0.970988 0.0897349
    outer loop
      vertex 0.654777 -1.0521 6.9982
      vertex 1.24698 -1.56366 0
      vertex 0.81553 -1.02264 6.9199
    endloop
  endfacet
  facet normal 0.221611 -0.970998 0.089732
    outer loop
      vertex 1.24698 -1.56366 0
      vertex 0.654777 -1.0521 6.9982
      vertex 0.0505603 -1.08433 8.14167
    endloop
  endfacet
  facet normal 0.897332 -0.432137 0.0897338
    outer loop
      vertex 1.24698 -1.56366 0
      vertex 0.952275 -0.664022 7.27948
      vertex 0.81553 -1.02264 6.9199
    endloop
  endfacet
  facet normal 0.897338 -0.432125 0.0897326
    outer loop
      vertex 0.952275 -0.664022 7.27948
      vertex 1.24698 -1.56366 0
      vertex 1.06018 -0.381028 7.56323
    endloop
  endfacet
  facet normal 0 0 1
    outer loop
      vertex -0.900969 0.419198 10
      vertex -0.222521 0.974928 10
      vertex -0.900969 0.433884 10
    endloop
  endfacet
  facet normal 0 0 1
    outer loop
      vertex -0.222521 0.974928 10
      vertex -0.900969 0.419198 10
      vertex -0.00455166 0.925178 10
    endloop
  endfacet
  facet normal -0.995966 -1.2539e-05 0.0897331
    outer loop
      vertex -0.903884 0.392225 9.96764
      vertex -0.900969 0.433884 10
      vertex -1.80194 0.867767 0
    endloop
  endfacet
  facet normal -0.995967 0 0.0897171
    outer loop
      vertex -0.900969 0.433884 10
      vertex -0.903884 0.392225 9.96764
      vertex -0.900969 0.419198 10
    endloop
  endfacet
  facet normal -0.995966 -8.24876e-07 0.0897336
    outer loop
      vertex -1.80194 0.867767 0
      vertex -0.904705 -0.435683 9.95852
      vertex -0.903884 0.392225 9.96764
    endloop
  endfacet
  facet normal -0.995966 0 0.0897338
    outer loop
      vertex -0.904705 -0.435683 9.95852
      vertex -1.80194 0.867767 0
      vertex -1.80194 -0.867767 0
    endloop
  endfacet
  facet normal 0.930864 0.338158 0.138356
    outer loop
      vertex 3.24264 -1.82843 5.33975
      vertex 0.414213 2.41421 14
      vertex 0.839292 0.924203 14.7818
    endloop
  endfacet
  facet normal -0.353536 0.353546 0.866035
    outer loop
      vertex 0.414213 2.41421 14
      vertex -0.120654 -0.50873 14.9749
      vertex 0.839292 0.924203 14.7818
    endloop
  endfacet
  facet normal -0.88421 0.00602615 -0.467052
    outer loop
      vertex 1.63275 -2.90692 5.1228
      vertex -0.167822 -1.09598 8.55496
      vertex 1.78117 -2.09586 4.85228
    endloop
  endfacet
  facet normal -0.884216 0.00596987 -0.467041
    outer loop
      vertex -0.251166 -1.10043 8.71269
      vertex -2.80556 0.257234 13.5661
      vertex -0.344801 -1.00519 8.89118
    endloop
  endfacet
  facet normal -0.884208 0.00603511 -0.467055
    outer loop
      vertex -0.251166 -1.10043 8.71269
      vertex 1.63275 -2.90692 5.1228
      vertex -2.80556 0.257234 13.5661
    endloop
  endfacet
  facet normal -0.884213 0.00601122 -0.467045
    outer loop
      vertex -0.167822 -1.09598 8.55496
      vertex 1.63275 -2.90692 5.1228
      vertex -0.251166 -1.10043 8.71269
    endloop
  endfacet
  facet normal -0.353539 0.35355 0.866033
    outer loop
      vertex -1.0758 2.83929 13.2182
      vertex -1.74277 -0.805559 14.4339
      vertex 0.414213 2.41421 14
    endloop
  endfacet
  facet normal 0.353556 -0.353551 -0.866025
    outer loop
      vertex 2.97521 -3.2899 5.82721
      vertex 2.49763 -1.61589 4.94883
      vertex 3.24264 -1.82843 5.33975
    endloop
  endfacet
  facet normal 0.78305 -0.46962 0.407786
    outer loop
      vertex 3.45518 -2.57343 5.73066
      vertex 0.839292 0.924203 14.7818
      vertex 2.97521 -3.2899 5.82721
    endloop
  endfacet
  facet normal -0.353556 0.353551 0.866026
    outer loop
      vertex -1.0758 2.83929 13.2182
      vertex -2.50873 1.87934 13.0251
      vertex -1.74277 -0.805559 14.4339
    endloop
  endfacet
  facet normal 0.401606 0.867413 -0.29378
    outer loop
      vertex 3.24264 -1.82843 5.33975
      vertex -1.0758 2.83929 13.2182
      vertex 0.414213 2.41421 14
    endloop
  endfacet
  facet normal 0.353555 -0.353551 -0.866025
    outer loop
      vertex 2.97521 -3.2899 5.82721
      vertex 1.63275 -2.90692 5.1228
      vertex 2.49763 -1.61589 4.94883
    endloop
  endfacet
  facet normal 0.783047 -0.469624 0.407787
    outer loop
      vertex 0.839292 0.924203 14.7818
      vertex -0.120654 -0.50873 14.9749
      vertex 2.97521 -3.2899 5.82721
    endloop
  endfacet
  facet normal -0.353592 0.353535 0.866017
    outer loop
      vertex -2.50873 1.87934 13.0251
      vertex -2.80556 0.257234 13.5661
      vertex -1.74277 -0.805559 14.4339
    endloop
  endfacet
  facet normal 0.353556 -0.353552 -0.866025
    outer loop
      vertex 2.49763 -1.61589 4.94883
      vertex 1.63275 -2.90692 5.1228
      vertex 1.78117 -2.09586 4.85228
    endloop
  endfacet
  facet normal 0.35355 -0.353551 -0.866028
    outer loop
      vertex 3.45518 -2.57343 5.73066
      vertex 2.97521 -3.2899 5.82721
      vertex 3.24264 -1.82843 5.33975
    endloop
  endfacet
  facet normal 0.930863 0.338161 0.138355
    outer loop
      vertex 3.24264 -1.82843 5.33975
      vertex 0.839292 0.924203 14.7818
      vertex 3.45518 -2.57343 5.73066
    endloop
  endfacet
  facet normal 0.0694778 -0.94766 0.31163
    outer loop
      vertex -0.120654 -0.50873 14.9749
      vertex -1.74277 -0.805559 14.4339
      vertex 2.97521 -3.2899 5.82721
    endloop
  endfacet
  facet normal -0.353531 0.353546 0.866038
    outer loop
      vertex 0.414213 2.41421 14
      vertex -1.74277 -0.805559 14.4339
      vertex -0.120654 -0.50873 14.9749
    endloop
  endfacet
  facet normal -0.406161 0.719604 -0.563207
    outer loop
      vertex 2.49763 -1.61589 4.94883
      vertex 1.06018 -0.381028 7.56323
      vertex 1.20421 -0.00330865 7.94197
    endloop
  endfacet
  facet normal -0.40618 0.719591 -0.563211
    outer loop
      vertex 2.49763 -1.61589 4.94883
      vertex 0.952275 -0.664022 7.27948
      vertex 1.06018 -0.381028 7.56323
    endloop
  endfacet
  facet normal -0.406173 0.719596 -0.563209
    outer loop
      vertex 0.952275 -0.664022 7.27948
      vertex 2.49763 -1.61589 4.94883
      vertex 1.78117 -2.09586 4.85228
    endloop
  endfacet
  facet normal -0.40616 0.719607 -0.563205
    outer loop
      vertex 0.0356498 0.919367 9.96358
      vertex -1.0758 2.83929 13.2182
      vertex 0.520334 0.849315 9.52454
    endloop
  endfacet
  facet normal 0.401638 0.867406 -0.293758
    outer loop
      vertex 3.24264 -1.82843 5.33975
      vertex 0.648773 0.813536 9.59448
      vertex -1.0758 2.83929 13.2182
    endloop
  endfacet
  facet normal 0.401617 0.86741 -0.293774
    outer loop
      vertex 3.24264 -1.82843 5.33975
      vertex 1.03844 0.243359 8.44366
      vertex 0.648773 0.813536 9.59448
    endloop
  endfacet
  facet normal 0.4016 0.867414 -0.293788
    outer loop
      vertex 3.24264 -1.82843 5.33975
      vertex 1.20475 0 7.95248
      vertex 1.03844 0.243359 8.44366
    endloop
  endfacet
  facet normal 0.401694 0.867398 -0.293704
    outer loop
      vertex 3.24264 -1.82843 5.33975
      vertex 1.20421 -0.00330865 7.94197
      vertex 1.20475 0 7.95248
    endloop
  endfacet
  facet normal 0.40161 0.867412 -0.293779
    outer loop
      vertex 1.20421 -0.00330865 7.94197
      vertex 3.24264 -1.82843 5.33975
      vertex 2.49763 -1.61589 4.94883
    endloop
  endfacet
  facet normal 0.401607 0.867414 -0.293777
    outer loop
      vertex -1.0758 2.83929 13.2182
      vertex 0.648773 0.813536 9.59448
      vertex 0.520334 0.849315 9.52454
    endloop
  endfacet
  facet normal 0.0694669 -0.947662 0.311625
    outer loop
      vertex 2.97521 -3.2899 5.82721
      vertex -1.74277 -0.805559 14.4339
      vertex 2.16415 -3.43831 5.55669
    endloop
  endfacet
  facet normal -0.672528 -0.73598 -0.0777116
    outer loop
      vertex -1.74277 -0.805559 14.4339
      vertex -2.80556 0.257234 13.5661
      vertex 2.16415 -3.43831 5.55669
    endloop
  endfacet
  facet normal -0.406175 0.719598 -0.563205
    outer loop
      vertex -0.900969 0.419198 10
      vertex -1.0758 2.83929 13.2182
      vertex -0.00455166 0.925178 10
    endloop
  endfacet
  facet normal -0.406216 0.719575 -0.563205
    outer loop
      vertex -0.00455166 0.925178 10
      vertex -1.0758 2.83929 13.2182
      vertex 0.0356498 0.919367 9.96358
    endloop
  endfacet
  facet normal -0.406177 0.719598 -0.563205
    outer loop
      vertex -1.0758 2.83929 13.2182
      vertex -0.900969 0.419198 10
      vertex -2.50873 1.87934 13.0251
    endloop
  endfacet
  facet normal -0.406191 0.719588 -0.563207
    outer loop
      vertex -2.50873 1.87934 13.0251
      vertex -0.900969 0.419198 10
      vertex -0.903884 0.392225 9.96764
    endloop
  endfacet
  facet normal -0.406172 0.719597 -0.563209
    outer loop
      vertex 0.952275 -0.664022 7.27948
      vertex 1.78117 -2.09586 4.85228
      vertex 0.81553 -1.02264 6.9199
    endloop
  endfacet
  facet normal -0.406203 0.719577 -0.563213
    outer loop
      vertex 0.654777 -1.0521 6.9982
      vertex 0.81553 -1.02264 6.9199
      vertex 1.78117 -2.09586 4.85228
    endloop
  endfacet
  facet normal -0.88421 0.00603235 -0.467051
    outer loop
      vertex -0.903884 0.392225 9.96764
      vertex -2.80556 0.257234 13.5661
      vertex -2.50873 1.87934 13.0251
    endloop
  endfacet
  facet normal -0.884209 0.00602174 -0.467052
    outer loop
      vertex -0.904705 -0.435683 9.95852
      vertex -2.80556 0.257234 13.5661
      vertex -0.903884 0.392225 9.96764
    endloop
  endfacet
  facet normal -0.884209 0.00602496 -0.467052
    outer loop
      vertex -2.80556 0.257234 13.5661
      vertex -0.904705 -0.435683 9.95852
      vertex -0.344801 -1.00519 8.89118
    endloop
  endfacet
  facet normal -0.884212 0.00600781 -0.467048
    outer loop
      vertex 0.0505603 -1.08433 8.14167
      vertex 1.78117 -2.09586 4.85228
      vertex -0.167822 -1.09598 8.55496
    endloop
  endfacet
  facet normal -0.884209 0.00602518 -0.467052
    outer loop
      vertex 1.78117 -2.09586 4.85228
      vertex 0.0505603 -1.08433 8.14167
      vertex 0.654777 -1.0521 6.9982
    endloop
  endfacet
  facet normal 0.353549 -0.353568 -0.866022
    outer loop
      vertex 2.16415 -3.43831 5.55669
      vertex 1.63275 -2.90692 5.1228
      vertex 2.97521 -3.2899 5.82721
    endloop
  endfacet
  facet normal -0.672524 -0.735985 -0.0777064
    outer loop
      vertex 2.16415 -3.43831 5.55669
      vertex -2.80556 0.257234 13.5661
      vertex 1.63275 -2.90692 5.1228
    endloop
  endfacet
endsolid OpenSCAD_Model
