solid OpenSCAD_Model
  facet normal -1 0 0
    outer loop
      vertex -2.5 2.5 0
      vertex -2.5 1.5 15
      vertex -2.5 2.5 16
    endloop
  endfacet
  facet normal -1 0 0
    outer loop
      vertex -2.5 2.5 0
      vertex -2.5 -1.5 15
      vertex -2.5 1.5 15
    endloop
  endfacet
  facet normal -1 0 0
    outer loop
      vertex -2.5 -2.5 0
      vertex -2.5 -1.5 15
      vertex -2.5 2.5 0
    endloop
  endfacet
  facet normal -1 0 0
    outer loop
      vertex -2.5 -2.5 16
      vertex -2.5 -1.5 15
      vertex -2.5 -2.5 0
    endloop
  endfacet
  facet normal -1 0 0
    outer loop
      vertex -2.5 -1.5 15
      vertex -2.5 -2.5 16
      vertex -2.5 -1.5 16
    endloop
  endfacet
  facet normal -1 -0 0
    outer loop
      vertex -2.5 2.5 16
      vertex -2.5 1.5 15
      vertex -2.5 1.5 16
    endloop
  endfacet
  facet normal -0 0 1
    outer loop
      vertex -2.5 -1.5 16
      vertex -1.5 -2.5 16
      vertex -1.5 -1.5 16
    endloop
  endfacet
  facet normal 0 0 1
    outer loop
      vertex -1.5 -2.5 16
      vertex -2.5 -1.5 16
      vertex -2.5 -2.5 16
    endloop
  endfacet
  facet normal 1 -0 0
    outer loop
      vertex -1.5 -2.5 16
      vertex -1.5 -1.5 15
      vertex -1.5 -1.5 16
    endloop
  endfacet
  facet normal 1 0 0
    outer loop
      vertex -1.5 -1.5 15
      vertex -1.5 -2.5 16
      vertex -1.5 -2.5 15
    endloop
  endfacet
  facet normal -0 0 1
    outer loop
      vertex -2.5 1.5 15
      vertex -1.5 -1.5 15
      vertex -1.5 1.5 15
    endloop
  endfacet
  facet normal 0 0 1
    outer loop
      vertex -1.5 -1.5 15
      vertex -2.5 1.5 15
      vertex -2.5 -1.5 15
    endloop
  endfacet
  facet normal 0 0 1
    outer loop
      vertex -1.5 1.5 15
      vertex 1.5 1.5 15
      vertex 1.5 2.5 15
    endloop
  endfacet
  facet normal 0 0 1
    outer loop
      vertex 1.5 1.5 15
      vertex -1.5 1.5 15
      vertex 1.5 -1.5 15
    endloop
  endfacet
  facet normal 0 0 1
    outer loop
      vertex -1.5 1.5 15
      vertex 1.5 2.5 15
      vertex -1.5 2.5 15
    endloop
  endfacet
  facet normal 0 0 1
    outer loop
      vertex -1.5 -1.5 15
      vertex 1.5 -1.5 15
      vertex -1.5 1.5 15
    endloop
  endfacet
  facet normal 0 0 1
    outer loop
      vertex 1.5 -1.5 15
      vertex -1.5 -1.5 15
      vertex 1.5 -2.5 15
    endloop
  endfacet
  facet normal 0 0 1
    outer loop
      vertex 1.5 -2.5 15
      vertex -1.5 -1.5 15
      vertex -1.5 -2.5 15
    endloop
  endfacet
  facet normal -0 0 1
    outer loop
      vertex 1.5 1.5 15
      vertex 2.5 -1.5 15
      vertex 2.5 1.5 15
    endloop
  endfacet
  facet normal 0 0 1
    outer loop
      vertex 2.5 -1.5 15
      vertex 1.5 1.5 15
      vertex 1.5 -1.5 15
    endloop
  endfacet
  facet normal 0 -1 0
    outer loop
      vertex -2.5 -2.5 16
      vertex -1.5 -2.5 15
      vertex -1.5 -2.5 16
    endloop
  endfacet
  facet normal 0 -1 -0
    outer loop
      vertex -1.5 -2.5 15
      vertex -2.5 -2.5 0
      vertex 1.5 -2.5 15
    endloop
  endfacet
  facet normal 0 -1 0
    outer loop
      vertex -2.5 -2.5 0
      vertex -1.5 -2.5 15
      vertex -2.5 -2.5 16
    endloop
  endfacet
  facet normal 0 -1 0
    outer loop
      vertex 1.5 -2.5 15
      vertex 2.5 -2.5 16
      vertex 1.5 -2.5 16
    endloop
  endfacet
  facet normal 0 -1 0
    outer loop
      vertex 2.5 -2.5 0
      vertex 1.5 -2.5 15
      vertex -2.5 -2.5 0
    endloop
  endfacet
  facet normal 0 -1 0
    outer loop
      vertex 1.5 -2.5 15
      vertex 2.5 -2.5 0
      vertex 2.5 -2.5 16
    endloop
  endfacet
  facet normal 0 1 -0
    outer loop
      vertex -1.5 -1.5 15
      vertex -2.5 -1.5 16
      vertex -1.5 -1.5 16
    endloop
  endfacet
  facet normal 0 1 0
    outer loop
      vertex -2.5 -1.5 16
      vertex -1.5 -1.5 15
      vertex -2.5 -1.5 15
    endloop
  endfacet
  facet normal -0 0 1
    outer loop
      vertex -2.5 2.5 16
      vertex -1.5 1.5 16
      vertex -1.5 2.5 16
    endloop
  endfacet
  facet normal 0 0 1
    outer loop
      vertex -1.5 1.5 16
      vertex -2.5 2.5 16
      vertex -2.5 1.5 16
    endloop
  endfacet
  facet normal 1 -0 0
    outer loop
      vertex -1.5 1.5 16
      vertex -1.5 2.5 15
      vertex -1.5 2.5 16
    endloop
  endfacet
  facet normal 1 0 0
    outer loop
      vertex -1.5 2.5 15
      vertex -1.5 1.5 16
      vertex -1.5 1.5 15
    endloop
  endfacet
  facet normal 0 1 0
    outer loop
      vertex 2.5 2.5 16
      vertex 1.5 2.5 15
      vertex 1.5 2.5 16
    endloop
  endfacet
  facet normal 0 1 0
    outer loop
      vertex 1.5 2.5 15
      vertex 2.5 2.5 0
      vertex -1.5 2.5 15
    endloop
  endfacet
  facet normal 0 1 -0
    outer loop
      vertex 2.5 2.5 0
      vertex 1.5 2.5 15
      vertex 2.5 2.5 16
    endloop
  endfacet
  facet normal 0 1 -0
    outer loop
      vertex -1.5 2.5 15
      vertex -2.5 2.5 16
      vertex -1.5 2.5 16
    endloop
  endfacet
  facet normal 0 1 0
    outer loop
      vertex -2.5 2.5 0
      vertex -1.5 2.5 15
      vertex 2.5 2.5 0
    endloop
  endfacet
  facet normal 0 1 0
    outer loop
      vertex -1.5 2.5 15
      vertex -2.5 2.5 0
      vertex -2.5 2.5 16
    endloop
  endfacet
  facet normal 0 -1 0
    outer loop
      vertex -2.5 1.5 15
      vertex -1.5 1.5 16
      vertex -2.5 1.5 16
    endloop
  endfacet
  facet normal 0 -1 -0
    outer loop
      vertex -1.5 1.5 16
      vertex -2.5 1.5 15
      vertex -1.5 1.5 15
    endloop
  endfacet
  facet normal -1 0 0
    outer loop
      vertex 1.5 -2.5 15
      vertex 1.5 -1.5 16
      vertex 1.5 -1.5 15
    endloop
  endfacet
  facet normal -1 -0 0
    outer loop
      vertex 1.5 -1.5 16
      vertex 1.5 -2.5 15
      vertex 1.5 -2.5 16
    endloop
  endfacet
  facet normal -0 0 1
    outer loop
      vertex 1.5 -1.5 16
      vertex 2.5 -2.5 16
      vertex 2.5 -1.5 16
    endloop
  endfacet
  facet normal 0 0 1
    outer loop
      vertex 2.5 -2.5 16
      vertex 1.5 -1.5 16
      vertex 1.5 -2.5 16
    endloop
  endfacet
  facet normal 1 0 0
    outer loop
      vertex 2.5 -1.5 16
      vertex 2.5 -2.5 16
      vertex 2.5 -1.5 15
    endloop
  endfacet
  facet normal 1 0 0
    outer loop
      vertex 2.5 1.5 15
      vertex 2.5 2.5 16
      vertex 2.5 1.5 16
    endloop
  endfacet
  facet normal 1 0 0
    outer loop
      vertex 2.5 2.5 16
      vertex 2.5 1.5 15
      vertex 2.5 2.5 0
    endloop
  endfacet
  facet normal 1 -0 0
    outer loop
      vertex 2.5 -1.5 15
      vertex 2.5 2.5 0
      vertex 2.5 1.5 15
    endloop
  endfacet
  facet normal 1 0 0
    outer loop
      vertex 2.5 -2.5 0
      vertex 2.5 -1.5 15
      vertex 2.5 -2.5 16
    endloop
  endfacet
  facet normal 1 0 0
    outer loop
      vertex 2.5 -1.5 15
      vertex 2.5 -2.5 0
      vertex 2.5 2.5 0
    endloop
  endfacet
  facet normal 0 1 -0
    outer loop
      vertex 2.5 -1.5 15
      vertex 1.5 -1.5 16
      vertex 2.5 -1.5 16
    endloop
  endfacet
  facet normal 0 1 0
    outer loop
      vertex 1.5 -1.5 16
      vertex 2.5 -1.5 15
      vertex 1.5 -1.5 15
    endloop
  endfacet
  facet normal -1 0 0
    outer loop
      vertex 1.5 1.5 15
      vertex 1.5 2.5 16
      vertex 1.5 2.5 15
    endloop
  endfacet
  facet normal -1 -0 0
    outer loop
      vertex 1.5 2.5 16
      vertex 1.5 1.5 15
      vertex 1.5 1.5 16
    endloop
  endfacet
  facet normal -0 0 1
    outer loop
      vertex 1.5 2.5 16
      vertex 2.5 1.5 16
      vertex 2.5 2.5 16
    endloop
  endfacet
  facet normal 0 0 1
    outer loop
      vertex 2.5 1.5 16
      vertex 1.5 2.5 16
      vertex 1.5 1.5 16
    endloop
  endfacet
  facet normal 0 -1 0
    outer loop
      vertex 1.5 1.5 15
      vertex 2.5 1.5 16
      vertex 1.5 1.5 16
    endloop
  endfacet
  facet normal 0 -1 -0
    outer loop
      vertex 2.5 1.5 16
      vertex 1.5 1.5 15
      vertex 2.5 1.5 15
    endloop
  endfacet
  facet normal 0 0 -1
    outer loop
      vertex -2.5 -2.5 0
      vertex 2.5 2.5 0
      vertex 2.5 -2.5 0
    endloop
  endfacet
  facet normal -0 0 -1
    outer loop
      vertex 2.5 2.5 0
      vertex -2.5 -2.5 0
      vertex -2.5 2.5 0
    endloop
  endfacet
endsolid OpenSCAD_Model
